<svg width="50" height="52" viewBox="0 0 50 52" fill="none" xmlns="http://www.w3.org/2000/svg">
<path fill-rule="evenodd" clip-rule="evenodd" d="M25.0012 29.4036L17.0082 34.4455C16.1431 34.9915 15.0455 34.9581 14.2129 34.3645C13.3804 33.7709 12.9711 32.7268 13.1711 31.7065L15.0431 22.104L8.88727 15.7937C8.18257 15.0713 7.95239 13.9915 8.30122 13.0307C8.65006 12.0723 9.5128 11.4096 10.5105 11.3381L18.9779 10.7183L22.657 1.91925C23.0594 0.956142 23.9803 0.333984 25.0012 0.333984C26.0221 0.333984 26.9431 0.956236 27.3453 1.91925L31.0244 10.7183L39.4917 11.3381C40.4894 11.4096 41.3522 12.0723 41.701 13.0307C42.0499 13.9915 41.8197 15.0713 41.115 15.7937L34.9592 22.1039L36.8313 31.7064C37.0313 32.7267 36.622 33.7708 35.7894 34.3644C34.9569 34.9579 33.8592 34.9914 32.9941 34.4454L25.0012 29.4036Z" fill="#36188A"/>
<path fill-rule="evenodd" clip-rule="evenodd" d="M21.8466 34.194L22.2792 34.2249C23.1791 34.2894 23.9582 34.8877 24.2745 35.7531C24.5885 36.6208 24.3815 37.5935 23.7443 38.2467L19.6862 42.409L20.9257 48.7669C21.1071 49.6871 20.735 50.6288 19.9839 51.1651C19.2328 51.7039 18.2421 51.7325 17.463 51.2391L12.2096 47.9254L6.95615 51.2391C6.17703 51.7326 5.18643 51.7039 4.43523 51.1651C3.68412 50.6288 3.31194 49.6871 3.49342 48.7669L4.7329 42.409L0.674743 38.249C0.0375379 37.5935 -0.169483 36.6207 0.144514 35.753C0.460791 34.8876 1.23981 34.2893 2.13985 34.2249L7.6747 33.8197L10.0933 28.0363C10.4003 27.3044 11.0398 26.7895 11.784 26.6465L10.8886 31.2403C10.5072 33.1903 11.2909 35.1856 12.884 36.3228C14.4769 37.4575 16.5746 37.5195 18.2258 36.4778L21.8466 34.194Z" fill="#36188A"/>
<path fill-rule="evenodd" clip-rule="evenodd" d="M38.2172 26.6465C38.9614 26.7895 39.6009 27.3044 39.9079 28.0364L42.3264 33.8198L47.8613 34.225C48.7612 34.2894 49.5403 34.8878 49.8566 35.7532C50.1706 36.6209 49.9636 37.5936 49.3264 38.2468L45.2682 42.4091L46.5078 48.767C46.6892 49.6872 46.3171 50.6289 45.5659 51.1652C44.8147 51.704 43.824 51.7326 43.045 51.2392L37.7915 47.9255L32.5381 51.2392C31.759 51.7327 30.7684 51.704 30.0172 51.1652C29.2661 50.6289 28.894 49.6872 29.0754 48.767L30.3148 42.4091L26.2568 38.2491C25.6196 37.5936 25.4125 36.6208 25.7265 35.7531C26.0428 34.8877 26.8218 34.2894 27.7219 34.225L28.1544 34.1941L31.7753 36.4779C33.4264 37.5197 35.5241 37.4576 37.1172 36.3229C38.7101 35.1857 39.4939 33.1904 39.1125 31.2404L38.2172 26.6465Z" fill="#36188A"/>
</svg>
