<svg width="50" height="42" viewBox="0 0 50 42" fill="none" xmlns="http://www.w3.org/2000/svg">
<path d="M37.1692 28.8656C36.7826 26.1731 35.4674 23.7119 33.4622 21.9283C31.457 20.1448 28.8945 19.1572 26.2397 19.1445H23.7654C21.1106 19.1572 18.5482 20.1448 16.5429 21.9283C14.5377 23.7119 13.2225 26.1731 12.8359 28.8656L11.65 37.3661C11.6121 37.6409 11.6371 37.921 11.7231 38.1841C11.8091 38.4472 11.9536 38.6863 12.1453 38.8822C12.6104 39.359 15.4637 41.7904 25.0049 41.7904C34.5461 41.7904 37.3924 39.3685 37.8645 38.8822C38.0562 38.6863 38.2007 38.4472 38.2867 38.1841C38.3726 37.921 38.3977 37.6409 38.3598 37.3661L37.1692 28.8656Z" fill="#36188A"/>
<path d="M14.6754 20.4559C12.4279 22.5797 10.9656 25.4346 10.5361 28.5369L9.67569 34.6394C2.76918 34.5917 0.676302 32.0172 0.327488 31.4928C0.192656 31.3023 0.0964363 31.086 0.0445137 30.8567C-0.00740892 30.6274 -0.013982 30.3898 0.0251829 30.1579L0.536776 27.202C0.803322 25.6572 1.42932 24.2011 2.36171 22.957C3.29409 21.713 4.50536 20.7178 5.8928 20.0558C7.28025 19.3938 8.80297 19.0845 10.3318 19.1542C11.8607 19.2238 13.3507 19.6703 14.6754 20.4559Z" fill="#36188A"/>
<path d="M49.9744 30.1579C50.0136 30.3898 50.007 30.6274 49.9551 30.8567C49.9031 31.086 49.8069 31.3023 49.6721 31.4928C49.3233 32.0172 47.2304 34.5917 40.3239 34.6394L39.4635 28.5369C39.034 25.4346 37.5717 22.5797 35.3242 20.4559C36.6489 19.6703 38.1389 19.2238 39.6677 19.1542C41.1966 19.0845 42.7193 19.3938 44.1068 20.0558C45.4942 20.7178 46.7055 21.713 47.6379 22.957C48.5703 24.2011 49.1963 25.6572 49.4628 27.202L49.9744 30.1579Z" fill="#36188A"/>
<path d="M15.0689 15.2112C14.4835 16.0622 13.7064 16.7558 12.8036 17.2331C11.9008 17.7103 10.899 17.9572 9.8832 17.9526C8.86991 17.9526 7.87113 17.7058 6.96916 17.2324C6.06719 16.7591 5.28785 16.0728 4.69537 15.2302C4.10289 14.3875 3.71423 13.4126 3.56142 12.3858C3.40861 11.359 3.49602 10.3096 3.81645 9.32419C4.13688 8.33878 4.68115 7.44553 5.40442 6.71805C6.12769 5.99057 7.00925 5.44969 7.97644 5.13998C8.94364 4.83027 9.96878 4.76059 10.9674 4.9367C11.966 5.1128 12.9095 5.52965 13.7201 6.15288C13.487 7.08756 13.3698 8.04866 13.3713 9.01341C13.3731 11.1997 13.9603 13.3435 15.0689 15.2112Z" fill="#36188A"/>
<path d="M46.5103 11.3972C46.5109 12.2582 46.3459 13.111 46.0248 13.9066C45.7036 14.7022 45.2326 15.4251 44.6386 16.034C44.0447 16.6428 43.3395 17.1256 42.5633 17.4549C41.7872 17.7841 40.9553 17.9532 40.1154 17.9526C39.0996 17.9572 38.0978 17.7103 37.1949 17.2331C36.2921 16.7558 35.515 16.0622 34.9297 15.2112C36.0383 13.3435 36.6255 11.1997 36.6272 9.01341C36.6288 8.04866 36.5116 7.08756 36.2784 6.15288C37.2285 5.42243 38.3583 4.97762 39.5411 4.86829C40.7239 4.75896 41.913 4.98943 42.9753 5.53387C44.0375 6.07832 44.9309 6.91522 45.5552 7.95082C46.1796 8.98641 46.5103 10.1798 46.5103 11.3972Z" fill="#36188A"/>
<path d="M25.0016 17.9526C29.8177 17.9526 33.7219 13.9504 33.7219 9.01339C33.7219 4.07642 29.8177 0.0742188 25.0016 0.0742188C20.1855 0.0742188 16.2812 4.07642 16.2812 9.01339C16.2812 13.9504 20.1855 17.9526 25.0016 17.9526Z" fill="#36188A"/>
</svg>
