<svg width="50" height="60" viewBox="0 0 50 60" fill="none" xmlns="http://www.w3.org/2000/svg">
<path d="M14.6887 30.1271C22.7991 30.1271 29.3774 23.3837 29.3774 15.0698C29.3774 6.75585 22.7991 0 14.6887 0C6.57831 0 0 6.74339 0 15.0573C0 23.3713 6.57831 30.1271 14.6887 30.1271ZM9.55739 21.0154C9.69115 20.5169 9.8249 20.0307 9.97082 19.5321C10.1411 18.9588 10.2991 18.8964 10.8098 19.1707C11.6853 19.6319 12.6094 19.8936 13.5822 20.0183C14.2023 20.0931 14.8225 20.0307 15.394 19.769C16.4762 19.2828 16.6464 17.999 15.7344 17.2262C15.4183 16.9644 15.0657 16.765 14.7009 16.6029C13.7524 16.1791 12.7675 15.8551 11.8677 15.3066C10.4207 14.4216 9.4966 13.1876 9.60603 11.3802C9.72763 9.33604 10.8585 8.05218 12.6824 7.37909C13.4363 7.0924 13.4363 7.10486 13.4484 6.29466C13.4484 6.02044 13.4484 5.74621 13.4484 5.47199C13.4606 4.86122 13.57 4.7615 14.1537 4.73658C14.3361 4.73658 14.5185 4.73658 14.7009 4.73658C15.9655 4.73658 15.9655 4.73658 15.9655 6.0329C15.9655 6.94282 15.9655 6.95529 16.8531 7.0924C17.534 7.20458 18.1785 7.40402 18.8108 7.6907C19.1634 7.85274 19.285 8.10204 19.1877 8.47598C19.0297 9.03689 18.8838 9.5978 18.7014 10.1462C18.5311 10.6698 18.3731 10.7445 17.8867 10.5077C16.9018 10.0216 15.8682 9.8097 14.7738 9.87202C14.482 9.88449 14.2145 9.92188 13.947 10.0465C13.0107 10.4703 12.8526 11.5298 13.6552 12.1904C14.0564 12.527 14.5185 12.7638 15.0049 12.9633C15.8317 13.3123 16.6707 13.6613 17.4733 14.11C19.9903 15.5434 20.6712 18.7843 18.8959 20.9905C18.2515 21.7882 17.4246 22.3242 16.4397 22.5985C16.0141 22.7231 15.8196 22.9475 15.8439 23.3962C15.8682 23.8449 15.8439 24.2812 15.8439 24.7299C15.8439 25.1288 15.6493 25.3407 15.2602 25.3531C14.7982 25.3656 14.3239 25.3656 13.8619 25.3531C13.4484 25.3407 13.2539 25.1039 13.2539 24.6925C13.2539 24.3684 13.2539 24.0444 13.2417 23.7203C13.2296 23.0098 13.2174 22.9724 12.5365 22.8602C11.6732 22.7231 10.8341 22.5237 10.0438 22.1248C9.44796 21.8381 9.38716 21.6761 9.55739 21.0154Z" fill="#36188A"/>
<path d="M47.6419 31.387H45.9274C44.7966 27.8346 42.5835 24.6811 39.6288 22.238C39.6288 22.1258 39.6045 22.0011 39.5801 21.889C38.96 19.6578 39.7261 17.626 40.6137 16.1677C41.2338 15.1456 40.4313 13.8368 39.264 13.9864C36.6497 14.3229 34.8501 15.3076 33.6098 16.417C32.7586 17.1773 32.1507 18.1994 31.8832 19.3337C30.0106 27.2862 23.0189 33.2069 14.6896 33.2069C10.6405 33.2069 6.91964 31.8108 3.94056 29.4675C2.907 31.761 2.34766 34.2664 2.34766 36.8964C2.34766 38.3174 2.51789 39.701 2.83404 41.0347C2.83404 41.0347 2.83404 41.0596 2.8462 41.097C3.1745 42.4806 3.67305 43.8143 4.30534 45.0733C5.14435 46.9305 6.3603 49.0993 8.03832 50.8569C10.4581 53.4121 10.8715 56.5781 10.9323 57.9493V58.5351C10.9323 58.56 10.9323 58.585 10.9323 58.6099C10.9323 58.6224 10.9323 58.6224 10.9323 58.6224C10.9809 59.2954 11.5281 59.8314 12.1969 59.8314H19.8817C20.5748 59.8314 21.1463 59.2581 21.1463 58.5351V56.5906C22.265 56.7402 23.408 56.8274 24.5631 56.8274C25.4751 56.8274 26.3627 56.7776 27.2504 56.6779V58.5351C27.2504 59.2456 27.8097 59.8314 28.515 59.8314H36.2241C36.9172 59.8314 37.4887 59.2581 37.4887 58.5351V56.5906C37.5009 55.9425 37.7197 53.3623 40.103 51.156C40.1881 51.0812 40.2732 51.0064 40.3584 50.9317C40.3827 50.9067 40.407 50.8943 40.4313 50.8693C43.0821 48.4512 45.0398 45.4347 46.049 42.0693H47.6662C48.9551 42.0693 50.0009 40.9973 50.0009 39.6761V33.7803C49.9765 32.459 48.9308 31.387 47.6419 31.387ZM38.0237 31.8108C36.9658 31.8108 36.1147 30.9383 36.1147 29.8539C36.1147 28.7695 36.9658 27.8969 38.0237 27.8969C39.0816 27.8969 39.9328 28.7695 39.9328 29.8539C39.9328 30.9383 39.0816 31.8108 38.0237 31.8108Z" fill="#36188A"/>
</svg>
