<svg width="75" height="77" viewBox="0 0 75 77" fill="none" xmlns="http://www.w3.org/2000/svg">
<path d="M32.7148 30.9021L43.1387 24.8927L32.7148 18.8848V30.9021Z" fill="#36188A"/>
<path d="M68.7806 14.8148H59.7025C55.921 6.09576 47.3924 0 37.5 0C27.6076 0 19.079 6.09576 15.2975 14.8148H6.21943C2.78994 14.8148 0 17.6749 0 21.1903V60.8471C0 64.3625 2.78994 67.2226 6.21943 67.2226H10.7388V69.9522C10.7388 73.7723 13.771 76.8821 17.499 76.8821H26.2178C27.4321 76.8821 28.415 75.873 28.415 74.6297V72.3773H34.1338C35.3467 72.3773 36.3311 71.3682 36.3311 70.1249C36.3311 68.8816 35.3467 67.8725 34.1338 67.8725H28.415V62.0673H34.1338C35.3467 62.0673 36.3311 61.0597 36.3311 59.8149C36.3311 58.5715 35.3467 57.5625 34.1338 57.5625H28.415V55.3101C28.415 54.0667 27.4321 53.0577 26.2178 53.0577H17.499C13.771 53.0577 10.7388 56.1675 10.7388 59.9891V62.7178H6.21943C5.21323 62.7178 4.39453 61.8787 4.39453 60.8471V21.1903C4.39453 20.1589 5.21323 19.3196 6.21943 19.3196H13.83C13.4285 21.1122 13.2158 22.9778 13.2158 24.8936C13.2158 38.6197 24.1099 49.7872 37.5 49.7872C50.8901 49.7872 61.7842 38.6197 61.7842 24.8936C61.7842 22.9778 61.5715 21.1122 61.17 19.3196H68.7806C69.7868 19.3196 70.6055 20.1589 70.6055 21.1903V60.8471C70.6055 61.8785 69.7868 62.7178 68.7806 62.7178H62.7964V59.9891C62.7964 56.1675 59.7642 53.0577 56.0361 53.0577H47.3174C46.103 53.0577 45.1201 54.0667 45.1201 55.3101V74.6297C45.1201 75.873 46.103 76.8821 47.3174 76.8821H56.0361C59.7642 76.8821 62.7964 73.7723 62.7964 69.9522V67.2226H68.7806C72.2101 67.2226 75 64.3626 75 60.8471V21.1903C75 17.6749 72.2101 14.8148 68.7806 14.8148ZM48.6973 26.8577L31.5952 36.7172C30.1251 37.5596 28.3198 36.4711 28.3198 34.7531V15.0341C28.3198 13.312 30.1337 12.2273 31.5952 13.0715L48.6973 22.931C50.1889 23.7877 50.1899 25.9973 48.6973 26.8577Z" fill="#36188A"/>
</svg>
