<svg width="50" height="52" viewBox="0 0 50 52" fill="none" xmlns="http://www.w3.org/2000/svg">
<path d="M25 0.458984C20.0555 0.458984 15.222 1.962 11.1108 4.77797C6.99953 7.59394 3.79521 11.5964 1.90302 16.2792C0.0108322 20.962 -0.484251 26.1148 0.480379 31.086C1.44501 36.0572 3.82603 40.6236 7.32234 44.2076C10.8187 47.7917 15.2732 50.2324 20.1227 51.2213C24.9723 52.2101 29.9989 51.7026 34.5671 49.7629C39.1352 47.8233 43.0397 44.5385 45.7867 40.3241C48.5338 36.1097 50 31.155 50 26.0863C50 19.2895 47.3661 12.7711 42.6777 7.96506C37.9893 3.159 31.6304 0.458984 25 0.458984ZM14.8375 5.26994L16.1932 6.23446C16.493 6.44861 16.736 6.73609 16.9 7.07084L17.2409 7.76977C17.4218 8.14123 17.7 8.45365 18.0445 8.67198C18.3889 8.8903 18.7859 9.00587 19.1909 9.00571H21.6148C22.1931 9.00571 22.7478 9.24122 23.1568 9.66044C23.5657 10.0797 23.7955 10.6482 23.7955 11.2411V11.2854C23.7957 11.7005 23.6831 12.1076 23.4701 12.4607C23.2571 12.8138 22.9522 13.099 22.5898 13.2843L16.775 16.2664C16.6936 16.3071 16.615 16.3534 16.5398 16.405L13.5636 18.4389C13.2478 18.6552 12.9921 18.9518 12.8216 19.2998L12.3796 20.2107C12.2268 20.5204 12.1472 20.8625 12.1472 21.2096C12.1472 21.5566 12.2268 21.8988 12.3796 22.2085C12.5839 22.6285 12.6542 23.1037 12.5806 23.567C12.507 24.0302 12.2932 24.458 11.9693 24.7898L11.9046 24.8574C11.5607 25.2099 11.1117 25.4344 10.6291 25.4952C10.1464 25.556 9.65778 25.4496 9.24092 25.1929L5.43751 22.8515C4.99136 22.5766 4.65567 22.1473 4.49092 21.6412L3.55569 18.7639C3.51251 18.7639 3.48183 18.7499 3.44206 18.7488C5.34939 12.8862 9.44764 8.03866 14.8375 5.26994ZM27.3648 34.3838C27.3649 34.5457 27.3396 34.7066 27.2898 34.8602L26.2841 37.9518C26.2123 38.1739 26.0909 38.3758 25.9296 38.5412L24.1114 40.405C23.9056 40.6155 23.7656 40.8839 23.7091 41.1762L22.7466 46.106C22.7021 46.3304 22.6082 46.5415 22.4722 46.7232C22.3361 46.9048 22.1614 47.0523 21.9614 47.1544L21.1727 47.5597C20.8962 47.7004 20.5836 47.7488 20.2789 47.698C19.9742 47.6473 19.6927 47.4999 19.4739 47.2767L18.0125 45.7786C17.9008 45.6635 17.8076 45.531 17.7364 45.3861L16.808 43.4827C16.7066 43.273 16.6537 43.0422 16.6534 42.8082V38.0019C16.6529 37.7217 16.5766 37.4472 16.4329 37.2088C16.2893 36.9705 16.084 36.7777 15.8398 36.6518L14.6216 36.0286C14.3917 35.9117 14.1958 35.7349 14.0534 35.516L12.1364 32.5677C11.975 32.3202 11.8888 32.0291 11.8886 31.7314V30.683C11.8894 30.403 11.9658 30.1287 12.1094 29.8906C12.2531 29.6524 12.4583 29.4598 12.7023 29.334L13.8307 28.7516C14.1157 28.6061 14.3467 28.3693 14.4886 28.0771L15.0568 26.9204C15.1793 26.6708 15.3667 26.4608 15.5983 26.3136C15.8299 26.1664 16.0968 26.0877 16.3693 26.0863H18.4216C18.6149 26.0862 18.8063 26.1251 18.9849 26.2009C19.1635 26.2766 19.3258 26.3877 19.4625 26.5278L19.7909 26.8645C20.0672 27.1472 20.4414 27.3064 20.8318 27.3071H21.1364C21.5272 27.3087 21.9015 27.4689 22.1773 27.7527C22.4531 28.0366 22.608 28.4209 22.608 28.8215C22.6086 29.1013 22.6848 29.3755 22.8283 29.6136C22.9717 29.8518 23.1767 30.0445 23.4205 30.1704L26.5568 31.7768C26.8008 31.9028 27.0059 32.0957 27.1493 32.334C27.2928 32.5724 27.3689 32.8468 27.3693 33.1269L27.3648 34.3838ZM33.3534 12.2406C33.4548 11.9889 33.6035 11.7602 33.7909 11.5673L35.8261 9.48214C35.9795 9.32507 36.1563 9.19412 36.35 9.09424L38.4864 7.99925C38.673 7.90799 38.8724 7.84708 39.0773 7.8187C41.5312 9.80194 43.5612 12.2813 45.0409 15.1027H44.0364C43.5008 15.1027 42.987 14.8849 42.608 14.497L42.3625 14.2453C41.9836 13.8571 41.4698 13.6388 40.9341 13.6384H39.3909C39.0753 13.6375 38.764 13.7125 38.4818 13.8574L36.4796 14.8849C36.1973 15.0293 35.8859 15.1039 35.5705 15.1027H35.2102C34.8782 15.1025 34.5514 15.0184 34.2587 14.8578C33.9659 14.6973 33.7163 14.4653 33.5318 14.1823C33.3473 13.8994 33.2337 13.5742 33.201 13.2355C33.1683 12.8968 33.2175 12.5551 33.3443 12.2406H33.3534ZM41.9205 41.6014L41.7727 41.2298C41.6922 40.9807 41.6511 40.7199 41.6511 40.4575V37.7678C41.651 37.3889 41.565 37.0153 41.4 36.6763L39.5205 32.8252C39.3554 32.4862 39.2695 32.1125 39.2693 31.7337V31.3772C39.2693 30.9614 39.1655 30.5524 38.968 30.1892C38.7705 29.826 38.4856 29.5205 38.1406 29.3018C37.7955 29.0831 37.4017 28.9585 36.9964 28.9396C36.5912 28.9208 36.1879 29.0084 35.825 29.1942L35.0102 29.6124C34.6799 29.7814 34.3158 29.8696 33.9466 29.8699H33.8432C33.3434 29.869 32.8565 29.7073 32.4512 29.4076C32.0459 29.1079 31.7426 28.6853 31.5841 28.1994L31.0591 26.5837C30.978 26.3347 30.9366 26.074 30.9364 25.8114V23.8533C30.9363 23.4515 31.0331 23.0559 31.218 22.7017C31.403 22.3475 31.6704 22.0456 31.9966 21.8229L34.1648 20.3412C34.3917 20.1859 34.6432 20.072 34.908 20.0045L38.5966 19.0586C39.0364 18.9461 39.4983 18.9643 39.9284 19.111L42.4739 19.9812C42.7172 20.0643 42.972 20.1067 43.2284 20.107H46.9432C47.9294 23.8343 47.9864 27.7558 47.1087 31.5115C46.2311 35.2672 44.4471 38.7367 41.9205 41.6014Z" fill="#36188A"/>
</svg>
