<svg width="68" height="70" viewBox="0 0 68 70" fill="none" xmlns="http://www.w3.org/2000/svg">
<path fill-rule="evenodd" clip-rule="evenodd" d="M17.1875 27.4305H21.0938C26.6875 27.4305 32.0531 29.7082 36.0094 33.7637C39.9656 37.8192 42.1875 43.3195 42.1875 49.0536V66.6724C42.1875 67.9987 41.1375 69.075 39.8438 69.075H27.3438C26.05 69.075 25 67.9987 25 66.6724V49.0536C25 47.9901 24.5875 46.9746 23.8562 46.2218C23.1219 45.4722 22.1313 45.0494 21.0938 45.0494H17.1875V47.4519C17.1875 48.3937 16.65 49.249 15.8125 49.6399C14.975 50.0307 13.9938 49.8801 13.3 49.2586L0.8 38.0467C0.290625 37.5918 0 36.9319 0 36.2399C0 35.548 0.290625 34.8881 0.8 34.4332L13.3 23.2212C13.9938 22.5998 14.975 22.4492 15.8125 22.84C16.65 23.2309 17.1875 24.0862 17.1875 25.028V27.4305Z" fill="#36188A"/>
<path fill-rule="evenodd" clip-rule="evenodd" d="M45.3125 27.4466C45.5719 27.4369 45.8313 27.4305 46.0938 27.4305H50V25.028C50 24.0862 50.5375 23.2309 51.375 22.84C52.2125 22.4492 53.1937 22.5998 53.8875 23.2212L66.3875 34.4332C66.8969 34.8881 67.1875 35.548 67.1875 36.2399C67.1875 36.9319 66.8969 37.5918 66.3875 38.0467L53.8875 49.2586C53.1937 49.8801 52.2125 50.0307 51.375 49.6399C50.5375 49.249 50 48.3937 50 47.4519V45.0494H46.0938C45.8281 45.0494 45.5688 45.0782 45.3125 45.1294V27.4466Z" fill="#36188A"/>
<path fill-rule="evenodd" clip-rule="evenodd" d="M25.0004 24.5504V17.82H22.6566C21.7379 17.82 20.9035 17.269 20.5223 16.4105C20.141 15.552 20.2879 14.5461 20.8941 13.8349L31.8316 1.02125C32.2754 0.49909 32.9191 0.201172 33.5941 0.201172C34.2691 0.201172 34.9129 0.49909 35.3566 1.02125L46.2941 13.8349C46.9004 14.5461 47.0473 15.552 46.666 16.4105C46.2848 17.269 45.4504 17.82 44.5316 17.82H42.1879V36.8547C41.116 34.9102 39.7879 33.1067 38.2191 31.4986C34.6098 27.7986 29.9754 25.3865 25.0004 24.5504Z" fill="#36188A"/>
</svg>
