<svg width="69" height="70" viewBox="0 0 69 70" fill="none" xmlns="http://www.w3.org/2000/svg">
<path fill-rule="evenodd" clip-rule="evenodd" d="M55.5938 22.5496C55.5938 17.6836 51.7469 13.7402 47 13.7402H22C17.2531 13.7402 13.4062 17.6836 13.4062 22.5496V48.177C13.4062 53.043 17.2531 56.9864 22 56.9864H47C51.7469 56.9864 55.5938 53.043 55.5938 48.177V22.5496ZM40.75 28.9565V41.7702C40.75 43.0964 41.8 44.1727 43.0938 44.1727C44.3875 44.1727 45.4375 43.0964 45.4375 41.7702V28.9565C45.4375 27.6303 44.3875 26.5539 43.0938 26.5539C41.8 26.5539 40.75 27.6303 40.75 28.9565ZM37.625 41.7702V32.1599C37.625 29.0654 35.1781 26.5539 32.1562 26.5539H29.0312C26.0094 26.5539 23.5625 29.0654 23.5625 32.1599V41.7702C23.5625 43.0964 24.6125 44.1727 25.9062 44.1727C27.2 44.1727 28.25 43.0964 28.25 41.7702V39.3676H32.9375V41.7702C32.9375 43.0964 33.9875 44.1727 35.2812 44.1727C36.575 44.1727 37.625 43.0964 37.625 41.7702ZM28.25 34.5625H32.9375V32.1599C32.9375 31.7178 32.5875 31.359 32.1562 31.359H29.0312C28.6 31.359 28.25 31.7178 28.25 32.1599V34.5625Z" fill="#36188A"/>
<path fill-rule="evenodd" clip-rule="evenodd" d="M53.25 37.7661H65.75C67.0438 37.7661 68.0938 36.6897 68.0938 35.3635C68.0938 34.0373 67.0438 32.9609 65.75 32.9609H53.25C51.9562 32.9609 50.9062 34.0373 50.9062 35.3635C50.9062 36.6897 51.9562 37.7661 53.25 37.7661Z" fill="#36188A"/>
<path fill-rule="evenodd" clip-rule="evenodd" d="M36.8438 16.142V3.32835C36.8438 2.00213 35.7938 0.925781 34.5 0.925781C33.2062 0.925781 32.1562 2.00213 32.1562 3.32835V16.142C32.1562 17.4682 33.2062 18.5446 34.5 18.5446C35.7938 18.5446 36.8438 17.4682 36.8438 16.142Z" fill="#36188A"/>
<path fill-rule="evenodd" clip-rule="evenodd" d="M32.1562 54.5823V67.3959C32.1562 68.7222 33.2062 69.7985 34.5 69.7985C35.7938 69.7985 36.8438 68.7222 36.8438 67.3959V54.5823C36.8438 53.256 35.7938 52.1797 34.5 52.1797C33.2062 52.1797 32.1562 53.256 32.1562 54.5823Z" fill="#36188A"/>
<path fill-rule="evenodd" clip-rule="evenodd" d="M15.75 32.9609H3.25C1.95625 32.9609 0.90625 34.0373 0.90625 35.3635C0.90625 36.6897 1.95625 37.7661 3.25 37.7661H15.75C17.0438 37.7661 18.0938 36.6897 18.0938 35.3635C18.0938 34.0373 17.0438 32.9609 15.75 32.9609Z" fill="#36188A"/>
<path fill-rule="evenodd" clip-rule="evenodd" d="M53.25 28.1547H61.0625C62.3562 28.1547 63.4062 27.0784 63.4062 25.7522C63.4062 24.426 62.3562 23.3496 61.0625 23.3496H53.25C51.9562 23.3496 50.9062 24.426 50.9062 25.7522C50.9062 27.0784 51.9562 28.1547 53.25 28.1547Z" fill="#36188A"/>
<path fill-rule="evenodd" clip-rule="evenodd" d="M27.4688 16.1416V8.13303C27.4688 6.80682 26.4188 5.73047 25.125 5.73047C23.8312 5.73047 22.7812 6.80682 22.7812 8.13303V16.1416C22.7812 17.4678 23.8312 18.5442 25.125 18.5442C26.4188 18.5442 27.4688 17.4678 27.4688 16.1416Z" fill="#36188A"/>
<path fill-rule="evenodd" clip-rule="evenodd" d="M22.7812 54.5823V62.5908C22.7812 63.917 23.8312 64.9934 25.125 64.9934C26.4188 64.9934 27.4688 63.917 27.4688 62.5908V54.5823C27.4688 53.256 26.4188 52.1797 25.125 52.1797C23.8312 52.1797 22.7812 53.256 22.7812 54.5823Z" fill="#36188A"/>
<path fill-rule="evenodd" clip-rule="evenodd" d="M15.75 23.3496H7.9375C6.64375 23.3496 5.59375 24.426 5.59375 25.7522C5.59375 27.0784 6.64375 28.1547 7.9375 28.1547H15.75C17.0437 28.1547 18.0938 27.0784 18.0938 25.7522C18.0938 24.426 17.0437 23.3496 15.75 23.3496Z" fill="#36188A"/>
<path fill-rule="evenodd" clip-rule="evenodd" d="M53.25 47.3754H61.0625C62.3562 47.3754 63.4062 46.2991 63.4062 44.9729C63.4062 43.6467 62.3562 42.5703 61.0625 42.5703H53.25C51.9562 42.5703 50.9062 43.6467 50.9062 44.9729C50.9062 46.2991 51.9562 47.3754 53.25 47.3754Z" fill="#36188A"/>
<path fill-rule="evenodd" clip-rule="evenodd" d="M46.2188 16.1416V8.13303C46.2188 6.80682 45.1688 5.73047 43.875 5.73047C42.5812 5.73047 41.5312 6.80682 41.5312 8.13303V16.1416C41.5312 17.4678 42.5812 18.5442 43.875 18.5442C45.1688 18.5442 46.2188 17.4678 46.2188 16.1416Z" fill="#36188A"/>
<path fill-rule="evenodd" clip-rule="evenodd" d="M41.5312 54.5823V62.5908C41.5312 63.917 42.5812 64.9934 43.875 64.9934C45.1688 64.9934 46.2188 63.917 46.2188 62.5908V54.5823C46.2188 53.256 45.1688 52.1797 43.875 52.1797C42.5812 52.1797 41.5312 53.256 41.5312 54.5823Z" fill="#36188A"/>
<path fill-rule="evenodd" clip-rule="evenodd" d="M15.75 42.5703H7.9375C6.64375 42.5703 5.59375 43.6467 5.59375 44.9729C5.59375 46.2991 6.64375 47.3754 7.9375 47.3754H15.75C17.0437 47.3754 18.0938 46.2991 18.0938 44.9729C18.0938 43.6467 17.0437 42.5703 15.75 42.5703Z" fill="#36188A"/>
</svg>
