<svg width="30" height="30" viewBox="0 0 30 30" fill="none" xmlns="http://www.w3.org/2000/svg">
<circle cx="15" cy="15" r="15" fill="white"/>
<path d="M22.9929 23.0014L22.9969 23.0008V17.1328C22.9969 14.2621 22.3789 12.0508 19.0229 12.0508C17.4096 12.0508 16.3269 12.9361 15.8849 13.7754H15.8382V12.3188H12.6562V23.0008H15.9696V17.7114C15.9696 16.3188 16.2336 14.9721 17.9582 14.9721C19.6576 14.9721 19.6829 16.5614 19.6829 17.8008V23.0014H22.9929Z" fill="#36188A"/>
<path d="M7.26562 12.3184H10.583V23.0004H7.26562V12.3184Z" fill="#36188A"/>
<path d="M8.92133 7C7.86067 7 7 7.86067 7 8.92133C7 9.982 7.86067 10.8607 8.92133 10.8607C9.982 10.8607 10.8427 9.982 10.8427 8.92133C10.842 7.86067 9.98133 7 8.92133 7Z" fill="#36188A"/>
</svg>
