<svg width="75" height="78" viewBox="0 0 75 78" fill="none" xmlns="http://www.w3.org/2000/svg">
<path d="M74.9981 52.8276C74.9981 43.2871 69.6589 34.7726 61.6623 30.6309C61.414 48.9234 46.9463 63.7541 29.1016 64.0087C33.1419 72.2059 41.448 77.6791 50.7549 77.6791C55.1186 77.6791 59.362 76.4878 63.0905 74.2243L74.8922 77.5706L71.6278 65.4728C73.8359 61.6507 74.9981 57.3007 74.9981 52.8276Z" fill="#36188A"/>
<path d="M57.2754 30.1532C57.2754 13.9658 44.4288 0.796875 28.6377 0.796875C12.8466 0.796875 0 13.9658 0 30.1532C0 35.4288 1.36986 40.5653 3.9711 45.0748L0.105286 59.4011L14.0814 55.4388C18.4805 58.1053 23.4913 59.5096 28.6377 59.5096C44.4288 59.5096 57.2754 46.3406 57.2754 30.1532ZM24.2432 23.3209H19.8486C19.8486 18.3527 23.7911 14.3113 28.6377 14.3113C33.4843 14.3113 37.4268 18.3527 37.4268 23.3209C37.4268 25.8426 36.3853 28.2663 34.5686 29.9696L30.835 33.4726V36.9855H26.4404V31.4888L31.6017 26.6462C32.5241 25.781 33.0322 24.6002 33.0322 23.3209C33.0322 20.8368 31.061 18.8161 28.6377 18.8161C26.2144 18.8161 24.2432 20.8368 24.2432 23.3209ZM26.4404 41.4903H30.835V45.9951H26.4404V41.4903Z" fill="#36188A"/>
</svg>
