<svg width="61" height="68" viewBox="0 0 61 68" fill="none" xmlns="http://www.w3.org/2000/svg">
<path d="M27.4693 27.0061C36.5965 26.7875 44.8952 25.5734 51.6569 20.0629C58.3552 14.142 53.7973 7.04822 46.6878 4.03765C40.3535 1.1692 34.9756 0.424261 27.4693 0.277344C-11.4333 1.5209 -6.6665 26.9825 27.4693 27.0061ZM27.4693 5.85148C36.0826 5.85148 42.5865 9.20306 42.5865 13.6358C42.373 23.9542 12.5708 23.9578 12.3638 13.6356C12.3638 9.20304 18.8559 5.85148 27.4693 5.85148Z" fill="#36188A"/>
<path d="M27.4687 19.0174C34.9922 19.0174 40.2422 16.1824 40.2422 13.6357C40.2422 11.0889 34.9922 8.25391 27.4687 8.25391C19.9453 8.25391 14.707 11.0889 14.707 13.6357C14.707 16.1824 19.9453 19.0174 27.4687 19.0174Z" fill="#36188A"/>
<path d="M8.54289 42.1181C10.1249 42.8415 11.7586 43.4399 13.4296 43.9081C13.4295 42.2832 13.4296 35.9328 13.4296 34.1897C13.4351 33.8748 13.561 33.5747 13.7802 33.354C13.9994 33.1334 14.2943 33.0097 14.6015 33.0097C14.9087 33.0097 15.2037 33.1334 15.4228 33.3541C15.642 33.5748 15.7679 33.8749 15.7734 34.1898C15.7732 35.9579 15.7735 42.8586 15.7734 44.4968C17.4885 43.785 19.1264 42.8912 20.6601 41.8299V35.4631C20.6601 35.1445 20.7835 34.839 21.0033 34.6137C21.2231 34.3884 21.5211 34.2618 21.8319 34.2618C22.1427 34.2618 22.4408 34.3884 22.6606 34.6137C22.8804 34.839 23.0038 35.1445 23.0038 35.4631V40.1842C29.3554 35.6433 34.4296 31.7031 38.2499 28.4236C27.033 30.9572 9.00732 28.5799 2.34382 22.3446C1.48067 21.6459 0.694721 20.8525 0 19.9785V32.3878C0.0731836 35.6875 2.29137 38.5604 6.19922 40.8928V31.1504C6.19922 30.8318 6.32268 30.5263 6.54245 30.301C6.76222 30.0757 7.06029 29.9492 7.37109 29.9492C7.68189 29.9492 7.97997 30.0757 8.19973 30.301C8.4195 30.5263 8.54297 30.8318 8.54297 31.1504C8.54281 33.0452 8.54297 40.3655 8.54289 42.1181Z" fill="#36188A"/>
<path d="M15.0235 48.5938C13.1399 50.0536 10.108 50.9636 10.0314 53.8073C10.0037 54.4113 10.1194 55.0132 10.3684 55.5614C10.6174 56.1095 10.9923 56.5876 11.461 56.9547L23.8829 66.7692C24.5252 67.2711 25.3096 67.545 26.1173 67.5493C26.925 67.5537 27.712 67.2882 28.3595 66.7932C29.7657 65.7 31.125 64.6229 32.4376 63.5617C32.0188 63.1954 15.4584 48.9713 15.0235 48.5938Z" fill="#36188A"/>
<path d="M48.5977 38.3453C49.8756 39.6065 51.7188 41.4185 53.0039 42.6819C60.4209 31.9768 62.9426 22.6188 57.2581 13.1543C57.4257 20.9076 49.6928 25.0683 43.2072 27.1734C37.8934 32.2218 28.7884 39.0966 20.6602 44.7361C19.4531 45.5574 18.2563 46.3968 17.0508 47.2107C17.451 47.5483 33.3691 61.232 34.3008 62.0225C36.2696 60.3768 38.1212 58.7551 39.8555 57.1573C39.0298 56.3033 34.5001 51.6675 34.5001 51.6675C34.3914 51.5564 34.3052 51.4244 34.2464 51.2791C34.1876 51.1338 34.1573 50.978 34.1573 50.8206C34.1573 50.6633 34.1876 50.5075 34.2464 50.3622C34.3052 50.2169 34.3914 50.0849 34.5001 49.9737C34.7213 49.7486 35.0204 49.6223 35.3321 49.6223C35.6438 49.6223 35.9429 49.7486 36.1641 49.9737C37.0912 50.908 41.5899 55.5357 41.5899 55.5357C43.254 53.95 44.8087 52.3843 46.254 50.8387C45.3427 50.0805 40.6758 46.2137 40.6758 46.2137C40.5553 46.1148 40.455 45.9924 40.3808 45.8535C40.3066 45.7146 40.2599 45.5621 40.2435 45.4047C40.227 45.2473 40.2412 45.0881 40.285 44.9363C40.3289 44.7845 40.4016 44.6431 40.4991 44.5202C40.5965 44.3974 40.7167 44.2955 40.8527 44.2205C40.9887 44.1454 41.1378 44.0987 41.2915 44.0831C41.4452 44.0674 41.6004 44.0831 41.7481 44.1292C41.8959 44.1753 42.0333 44.2509 42.1524 44.3517C42.1524 44.3517 46.9644 48.3276 47.8712 49.0848C49.2188 47.5712 50.4532 46.0816 51.5743 44.616C50.7216 43.7856 46.9805 40.0872 46.9805 40.0872C46.7606 39.866 46.6344 39.5651 46.6291 39.2494C46.6239 38.9337 46.7399 38.6286 46.9523 38.3999C47.1646 38.1711 47.4562 38.0372 47.7641 38.027C48.0719 38.0168 48.3713 38.1311 48.5977 38.3453Z" fill="#36188A"/>
</svg>
