<svg width="75" height="68" viewBox="0 0 75 68" fill="none" xmlns="http://www.w3.org/2000/svg">
<path d="M39.6992 2.97897C39.6992 1.73487 38.7156 0.726562 37.502 0.726562C36.2883 0.726562 35.3047 1.73487 35.3047 2.97897V12.6291C35.3047 13.8732 36.2883 14.8815 37.502 14.8815C38.7156 14.8815 39.6992 13.8732 39.6992 12.6291V2.97897Z" fill="#36188A"/>
<path d="M26.5309 16.6354C26.9595 17.0748 27.522 17.2953 28.0845 17.2953C28.6464 17.2953 29.2089 17.0754 29.638 16.6354C30.4958 15.7556 30.4958 14.3296 29.638 13.4498L24.9305 8.62473C24.0728 7.74488 22.6817 7.74488 21.8234 8.62473C20.9651 9.50457 20.9651 10.9305 21.8234 11.8104L26.5309 16.6354Z" fill="#36188A"/>
<path d="M46.916 17.2947C47.4785 17.2947 48.041 17.0748 48.4696 16.6348L53.1771 11.8098C54.0348 10.9305 54.0348 9.50399 53.1771 8.62473C52.3188 7.74488 50.9277 7.74488 50.0694 8.62473L45.3625 13.4498C44.5042 14.3296 44.5042 15.7556 45.3625 16.6348C45.7916 17.0748 46.3541 17.2947 46.916 17.2947Z" fill="#36188A"/>
<path d="M31.1434 22.4856C31.1205 22.505 31.0987 22.5237 31.0781 22.5413L21.5784 30.8893C20.6984 31.6624 19.5734 32.0888 18.413 32.0888H11.6089C5.19733 32.0888 0 37.4072 0 43.989V65.7054C0 66.9489 0.98362 67.9578 2.19727 67.9578H21.0251C22.2393 67.9578 23.2224 66.9483 23.2224 65.7054V45.0278L34.4032 35.2035C34.9743 34.702 35.3027 33.9694 35.3027 33.1986V24.5509C35.3027 22.3513 32.8102 21.1001 31.1434 22.4856Z" fill="#36188A"/>
<path d="M63.3892 32.0888H56.5851C55.4246 32.0888 54.2997 31.6624 53.4196 30.8887L43.9199 22.5413C43.8993 22.5237 43.8776 22.505 43.8547 22.4856C42.1878 21.1001 39.6953 22.3513 39.6953 24.5509V33.1986C39.6953 33.9694 40.0238 34.702 40.5948 35.2035L51.7757 45.0278V65.7048C51.7757 66.9483 52.7587 67.9572 53.973 67.9572H72.8008C74.0144 67.9572 74.998 66.9489 74.998 65.7048V43.989C74.998 37.4072 69.8007 32.0888 63.3892 32.0888Z" fill="#36188A"/>
<path d="M20.867 22.5994C20.867 17.3667 16.7139 13.1094 11.6093 13.1094C6.50462 13.1094 2.35156 17.3667 2.35156 22.5994C2.35156 27.8327 6.50462 32.09 11.6093 32.09C16.7139 32.09 20.867 27.8327 20.867 22.5994Z" fill="#36188A"/>
<path d="M72.6482 22.5994C72.6482 17.3667 68.4951 13.1094 63.3905 13.1094C58.2859 13.1094 54.1328 17.3667 54.1328 22.5994C54.1328 27.8327 58.2859 32.09 63.3905 32.09C68.4951 32.09 72.6482 27.8327 72.6482 22.5994Z" fill="#36188A"/>
</svg>
