<svg width="357" height="71" viewBox="0 0 357 71" fill="none" xmlns="http://www.w3.org/2000/svg">
<path d="M109.261 41.5293H86.9336V1.75533H108.373V7.35849H93.5345V18.6189H107.209V24.1939H93.5345V35.9543H109.261V41.5293Z" fill="white"/>
<path d="M147.512 1.75533L133.228 41.5293H125.851L111.816 1.75533H119.027L128.846 31.9321C129.16 32.894 129.401 34.0129 129.567 35.2889H129.678C129.807 34.2348 130.076 33.0975 130.483 31.8772L140.523 1.75533H147.512Z" fill="white"/>
<path d="M175.105 41.5293H152.777V1.75533H174.217V7.35849H159.378V18.6189H173.053V24.1939H159.378V35.9543H175.105V41.5293Z" fill="white"/>
<path d="M188.753 7.10923V20.0336H194.245C195.262 20.0336 196.199 19.8766 197.061 19.5626C197.92 19.2485 198.664 18.795 199.293 18.2035C199.921 17.6113 200.411 16.891 200.763 16.0395C201.114 15.1897 201.29 14.2369 201.29 13.1835C201.29 11.2787 200.689 9.79001 199.487 8.71755C198.284 7.64509 196.556 7.10923 194.3 7.10923H188.753ZM212.911 41.5293H205.201L198.849 30.8786C198.276 29.8984 197.715 29.0615 197.17 28.3686C196.625 27.675 196.071 27.1064 195.507 26.6627C194.942 26.2184 194.327 25.8959 193.662 25.6917C192.996 25.4889 192.248 25.3868 191.416 25.3868H188.753V41.5293H182.18V1.75533H195.271C197.138 1.75533 198.858 1.9779 200.43 2.42152C202.001 2.86513 203.37 3.5359 204.535 4.43229C205.7 5.32943 206.61 6.44839 207.267 7.78839C207.923 9.12916 208.251 10.6963 208.251 12.4898C208.251 13.8946 208.044 15.1851 207.628 16.3589C207.211 17.5327 206.62 18.5778 205.852 19.4924C205.085 20.4079 204.16 21.1892 203.079 21.8363C201.998 22.4842 200.78 22.9835 199.432 23.3341V23.4454C200.152 23.8524 200.78 24.3006 201.317 24.7907C201.854 25.2808 202.362 25.7847 202.842 26.3022C203.323 26.8198 203.8 27.4067 204.271 28.0637C204.742 28.72 205.265 29.483 205.839 30.352L212.911 41.5293Z" fill="white"/>
<path d="M244.418 1.75533L231.382 27.0789V41.5293H224.781V27.2169L212.078 1.75533H219.594L227.416 18.8133C227.508 19.0168 227.785 19.7844 228.248 21.1152H228.332C228.498 20.5237 228.803 19.7562 229.247 18.8133L237.428 1.75533H244.418Z" fill="white"/>
<path d="M264.862 6.88802C261.219 6.88802 258.256 8.24632 255.972 10.9644C253.688 13.6825 252.547 17.2605 252.547 21.6989C252.547 26.1183 253.656 29.6772 255.875 32.377C258.094 35.0768 260.997 36.426 264.584 36.426C268.393 36.426 271.398 35.1416 273.599 32.5714C275.798 30.0011 276.899 26.4042 276.899 21.782C276.899 17.0303 275.832 13.3601 273.695 10.7708C271.56 8.18153 268.615 6.88802 264.862 6.88802ZM264.556 42.1953C258.825 42.1953 254.235 40.337 250.786 36.6204C247.337 32.9037 245.613 28.0689 245.613 22.1143C245.613 15.7169 247.369 10.6138 250.883 6.80417C254.396 2.9953 259.167 1.09049 265.195 1.09049C270.779 1.09049 275.276 2.93967 278.688 6.63801C282.1 10.3364 283.806 15.1712 283.806 21.144C283.806 27.6344 282.058 32.765 278.564 36.5373C275.069 40.3096 270.4 42.1953 264.556 42.1953Z" fill="white"/>
<path d="M324.825 41.5293H317.613L298.614 12.2955C298.133 11.5561 297.736 10.7885 297.421 9.99352H297.255C297.403 10.8442 297.477 12.6659 297.477 15.4572V41.5293H291.098V1.75533H298.78L317.142 30.2963C317.918 31.4801 318.418 32.2926 318.64 32.737H318.75C318.565 31.6828 318.472 29.8984 318.472 27.3838V1.75533H324.825V41.5293Z" fill="white"/>
<path d="M357 41.5293H334.672V1.75533H356.112V7.35849H341.274V18.6189H354.947V24.1939H341.274V35.9543H357V41.5293Z" fill="white"/>
<path d="M100.595 55.3132H95.7414V69.2109H91.8967V55.3132H87.0664V52.1926H100.595V55.3132Z" fill="white"/>
<path d="M121.331 69.2109H111.125V52.1926H120.939V55.3132H114.958V59.0992H120.524V62.2083H114.958V66.1011H121.331V69.2109Z" fill="white"/>
<path d="M144.503 68.6061C143.26 69.2067 141.638 69.5078 139.636 69.5078C137.026 69.5078 134.972 68.7402 133.477 67.2051C131.981 65.67 131.234 63.6257 131.234 61.0699C131.234 58.348 132.074 56.1406 133.756 54.4476C135.437 52.7547 137.619 51.9079 140.301 51.9079C141.963 51.9079 143.363 52.1175 144.503 52.5367V56.2275C143.363 55.5468 142.065 55.2068 140.61 55.2068C139.011 55.2068 137.722 55.7099 136.741 56.7145C135.76 57.7191 135.269 59.0797 135.269 60.797C135.269 62.4419 135.732 63.7537 136.658 64.7309C137.583 65.7081 138.829 66.1967 140.396 66.1967C141.891 66.1967 143.26 65.8331 144.503 65.1044V68.6061Z" fill="white"/>
<path d="M170.436 69.2109H166.59V62.28H159.54V69.2109H155.707V52.1926H159.54V58.9803H166.59V52.1926H170.436V69.2109Z" fill="white"/>
<path d="M197.876 69.2109H194.007L186.993 58.5176C186.582 57.8926 186.297 57.4215 186.139 57.1052H186.092C186.154 57.7066 186.186 58.6243 186.186 59.8591V69.2109H182.566V52.1926H186.696L193.45 62.5529C193.758 63.0201 194.043 63.4828 194.304 63.9416H194.351C194.287 63.5453 194.257 62.7663 194.257 61.6031V52.1926H197.876V69.2109Z" fill="white"/>
<path d="M217.369 55.2068C216.023 55.2068 214.955 55.7114 214.163 56.7199C213.373 57.7291 212.977 59.0637 212.977 60.7254C212.977 62.4107 213.373 63.7438 214.163 64.7248C214.955 65.7058 215.992 66.1967 217.273 66.1967C218.594 66.1967 219.643 65.7195 220.419 64.766C221.193 63.8132 221.581 62.49 221.581 60.797C221.581 59.0325 221.206 57.6597 220.454 56.6787C219.703 55.6977 218.673 55.2068 217.369 55.2068ZM217.201 69.5078C214.766 69.5078 212.778 68.7143 211.243 67.1281C209.709 65.5419 208.941 63.4748 208.941 60.9274C208.941 58.2375 209.72 56.0613 211.28 54.4004C212.838 52.7387 214.904 51.9079 217.476 51.9079C219.903 51.9079 221.868 52.7029 223.367 54.2929C224.867 55.8837 225.616 57.9798 225.616 60.5828C225.616 63.2575 224.838 65.4131 223.284 67.0511C221.729 68.6892 219.703 69.5078 217.201 69.5078Z" fill="white"/>
<path d="M246.815 69.2109H236.68V52.1926H240.513V66.1011H246.815V69.2109Z" fill="white"/>
<path d="M264.098 55.2068C262.753 55.2068 261.685 55.7114 260.894 56.7199C260.102 57.7291 259.707 59.0637 259.707 60.7254C259.707 62.4107 260.102 63.7438 260.894 64.7248C261.685 65.7058 262.721 66.1967 264.003 66.1967C265.324 66.1967 266.372 65.7195 267.148 64.766C267.923 63.8132 268.31 62.49 268.31 60.797C268.31 59.0325 267.935 57.6597 267.183 56.6787C266.432 55.6977 265.403 55.2068 264.098 55.2068ZM263.931 69.5078C261.495 69.5078 259.509 68.7143 257.974 67.1281C256.439 65.5419 255.672 63.4748 255.672 60.9274C255.672 58.2375 256.451 56.0613 258.009 54.4004C259.568 52.7387 261.633 51.9079 264.205 51.9079C266.634 51.9079 268.597 52.7029 270.097 54.2929C271.596 55.8837 272.346 57.9798 272.346 60.5828C272.346 63.2575 271.568 65.4131 270.014 67.0511C268.459 68.6892 266.432 69.5078 263.931 69.5078Z" fill="white"/>
<path d="M297.38 68.0718C295.719 69.0291 293.653 69.5078 291.185 69.5078C288.448 69.5078 286.29 68.7501 284.711 67.2348C283.133 65.7195 282.344 63.6333 282.344 60.9746C282.344 58.3007 283.207 56.1208 284.931 54.4355C286.655 52.7502 288.95 51.9079 291.814 51.9079C293.618 51.9079 295.208 52.1571 296.585 52.6556V56.2511C295.271 55.4919 293.665 55.1123 291.766 55.1123C290.176 55.1123 288.881 55.6283 287.88 56.6612C286.879 57.6932 286.379 59.0721 286.379 60.797C286.379 62.5456 286.827 63.8986 287.725 64.8552C288.623 65.8125 289.836 66.2912 291.363 66.2912C292.28 66.2912 293.009 66.1609 293.547 65.9002V62.5769H290.14V59.515H297.38V68.0718Z" fill="white"/>
<path d="M312.758 69.2109H308.926V52.1926H312.758V69.2109Z" fill="white"/>
<path d="M335.077 69.2109H324.871V52.1926H334.686V55.3132H328.704V59.0992H334.27V62.2083H328.704V66.1011H335.077V69.2109Z" fill="white"/>
<path d="M345.263 68.5581V64.7606C345.951 65.3376 346.698 65.7714 347.506 66.0602C348.312 66.3491 349.128 66.4932 349.951 66.4932C350.433 66.4932 350.854 66.4497 351.215 66.3628C351.574 66.2752 351.875 66.1555 352.116 66.0008C352.358 65.8468 352.537 65.6646 352.657 65.4543C352.775 65.2454 352.834 65.0175 352.834 64.7721C352.834 64.4405 352.74 64.1432 352.549 63.8825C352.359 63.6211 352.1 63.3795 351.772 63.1584C351.444 62.9374 351.054 62.7232 350.603 62.5174C350.152 62.3116 349.666 62.102 349.144 61.8886C347.815 61.3352 346.823 60.6583 346.171 59.8595C345.518 59.0599 345.191 58.0949 345.191 56.9638C345.191 56.0773 345.369 55.3158 345.726 54.6786C346.081 54.0421 346.566 53.5177 347.179 53.1061C347.792 52.6953 348.502 52.3927 349.309 52.1991C350.116 52.0047 350.971 51.9079 351.872 51.9079C352.759 51.9079 353.545 51.9613 354.228 52.068C354.913 52.1754 355.544 52.3393 356.123 52.5604V56.1093C355.837 55.9111 355.526 55.7366 355.19 55.5864C354.854 55.4363 354.508 55.312 354.151 55.2129C353.796 55.1138 353.441 55.0407 353.09 54.9934C352.737 54.9461 352.403 54.9225 352.087 54.9225C351.652 54.9225 351.256 54.9637 350.901 55.0468C350.543 55.1299 350.243 55.2465 349.999 55.3966C349.753 55.5468 349.563 55.7274 349.429 55.9363C349.294 56.1467 349.227 56.3822 349.227 56.6429C349.227 56.928 349.302 57.1833 349.451 57.4082C349.602 57.6345 349.816 57.848 350.093 58.0492C350.37 58.2512 350.706 58.4494 351.102 58.6422C351.497 58.8366 351.945 59.0363 352.442 59.2421C353.123 59.5272 353.734 59.829 354.276 60.1499C354.818 60.47 355.283 60.8321 355.671 61.2361C356.059 61.6393 356.356 62.1004 356.561 62.6188C356.766 63.1371 356.87 63.74 356.87 64.4283C356.87 65.378 356.69 66.1746 356.33 66.8202C355.969 67.4643 355.48 67.9864 354.863 68.3866C354.246 68.786 353.529 69.0726 352.709 69.2464C351.891 69.4202 351.026 69.5078 350.116 69.5078C349.183 69.5078 348.294 69.4285 347.453 69.27C346.609 69.1122 345.88 68.8744 345.263 68.5581Z" fill="white"/>
<path d="M6.89848 58.2117C6.91311 53.1246 11.0491 49.0124 16.1361 49.0268C21.2231 49.0421 25.3349 53.1779 25.3204 58.2651C25.3057 63.3514 21.1698 67.4637 16.0827 67.4492C10.9958 67.4339 6.88392 63.2981 6.89848 58.2117Z" fill="white"/>
<path d="M14.8594 9.18434C14.8744 4.09722 19.0101 -0.0142555 24.097 0.000226974C29.184 0.0147095 33.2962 4.15059 33.2813 9.23771C33.2668 14.3248 29.131 18.4371 24.0438 18.4218C18.9567 18.4074 14.8449 14.2715 14.8594 9.18434Z" fill="white"/>
<path d="M53.3477 39.6707C53.3623 34.5836 57.4983 30.4713 62.5853 30.4858C67.6725 30.5011 71.7839 34.6369 71.7694 39.724C71.755 44.8112 67.6191 48.9226 62.532 48.9082C57.445 48.8929 53.3328 44.7578 53.3477 39.6707Z" fill="white"/>
<path d="M58.0306 57.1329C59.1891 58.1032 59.2147 59.8693 58.0926 60.8808C53.6856 64.8551 42.0726 72.9896 23.3164 69.9208C23.7481 67.2828 26.1036 65.3848 28.7717 65.5495C42.8271 66.4169 51.4718 60.191 54.7727 57.1992C55.6919 56.3669 57.08 56.3371 58.0306 57.1329Z" fill="white"/>
<path d="M57.0012 49.9603C56.6846 50.4116 49.4292 60.4822 33.6063 61.1811C32.1718 61.2444 30.9793 60.0782 31.0124 58.6421C31.0424 57.3349 32.0852 56.2808 33.392 56.2236C41.4623 55.8737 46.8421 52.7234 49.8826 50.2187C51.9243 48.5372 54.838 48.4374 57.0012 49.9603Z" fill="white"/>
<path d="M15.9726 21.1392C17.0275 21.874 17.33 23.2834 16.7089 24.4092C13.3006 30.5871 13.4778 37.3412 14.1254 41.6432C14.525 44.2958 12.9791 46.8539 10.4482 47.7441C10.2392 47.1526 5.70419 33.9279 12.3993 21.938C13.1092 20.6666 14.778 20.3076 15.9726 21.1392Z" fill="white"/>
<path d="M11.0683 7.6717C13.0215 9.51249 13.2615 12.5179 11.6602 14.672C2.78086 26.6146 4.82874 38.5177 6.16768 43.1947C6.51038 44.3914 5.89434 45.6537 4.74924 46.1407C3.37189 46.7269 1.79918 45.9685 1.3907 44.5278C-0.36365 38.3431 -2.8909 22.4849 11.0683 7.6717Z" fill="white"/>
<path d="M68.508 28.0231C65.9179 28.7259 63.2303 27.3592 62.2318 24.8675C56.6998 11.0703 45.5012 6.58689 40.8049 5.27738C39.5994 4.94124 38.835 3.76207 39.0196 2.52421C39.2406 1.0432 40.709 0.099556 42.1504 0.504299C48.3402 2.24219 63.1792 8.37967 68.508 28.0231Z" fill="white"/>
<path d="M41.0768 9.60486C49.6036 13.1401 54.5567 19.712 56.7998 23.4279C57.3516 24.3418 57.3194 25.7878 56.6492 26.6323C56.2127 27.1819 55.5011 27.5074 54.8029 27.5059C53.6881 27.5043 52.9217 26.6148 52.3777 25.7451C52.0347 25.1963 51.6735 24.6582 51.2969 24.1315C50.3334 22.7846 49.2665 21.5117 48.1047 20.3317C46.694 18.898 45.1407 17.603 43.462 16.4947C41.5427 15.2278 39.4609 14.2103 37.2751 13.493C37.0753 13.4274 34.8887 12.7902 34.8789 12.8344C35.4961 10.0706 38.4605 8.5202 41.0768 9.60486Z" fill="white"/>
</svg>
