<svg width="440" height="88" viewBox="0 0 440 88" fill="none" xmlns="http://www.w3.org/2000/svg">
<path d="M134.667 51.1855H107.148V2.16444H133.572V9.07029H115.284V22.9487H132.138V29.8198H115.284V44.3145H134.667V51.1855Z" fill="#372D86"/>
<path d="M181.804 2.16444L164.199 51.1855H155.106L137.809 2.16444H146.696L158.798 39.357C159.185 40.5426 159.482 41.9217 159.686 43.4943H159.823C159.982 42.1951 160.313 40.7934 160.815 39.2894L173.189 2.16444H181.804Z" fill="#372D86"/>
<path d="M215.819 51.1855H188.301V2.16444H214.725V9.07029H196.436V22.9487H213.29V29.8198H196.436V44.3145H215.819V51.1855Z" fill="#372D86"/>
<path d="M232.637 8.76309V24.6923H239.406C240.659 24.6923 241.814 24.4988 242.876 24.1117C243.935 23.7247 244.853 23.1657 245.627 22.4367C246.402 21.7067 247.006 20.819 247.439 19.7696C247.872 18.7221 248.088 17.5478 248.088 16.2495C248.088 13.9019 247.348 12.0671 245.866 10.7453C244.384 9.42353 242.254 8.76309 239.473 8.76309H232.637ZM262.412 51.1855H252.908L245.08 38.0587C244.373 36.8506 243.683 35.8191 243.011 34.9651C242.339 34.1102 241.656 33.4094 240.961 32.8626C240.265 32.3149 239.507 31.9176 238.687 31.6658C237.867 31.4159 236.944 31.29 235.918 31.29H232.637V51.1855H224.535V2.16444H240.67C242.972 2.16444 245.091 2.43876 247.028 2.98551C248.965 3.53226 250.652 4.35899 252.088 5.46378C253.524 6.5695 254.645 7.9486 255.455 9.60015C256.264 11.2526 256.668 13.1841 256.668 15.3946C256.668 17.126 256.412 18.7165 255.899 20.1632C255.386 21.61 254.657 22.898 253.711 24.0253C252.765 25.1536 251.626 26.1165 250.293 26.9141C248.961 27.7126 247.46 28.3279 245.799 28.7601V28.8972C246.686 29.3989 247.46 29.9513 248.122 30.5554C248.783 31.1594 249.41 31.7804 250.002 32.4183C250.594 33.0562 251.182 33.7795 251.762 34.5893C252.344 35.3982 252.987 36.3386 253.695 37.4096L262.412 51.1855Z" fill="#372D86"/>
<path d="M301.245 2.16444L285.179 33.3756V51.1855H277.043V33.5456L261.387 2.16444H270.651L280.291 23.1882C280.404 23.4391 280.746 24.3851 281.316 26.0254H281.419C281.624 25.2964 282 24.3503 282.547 23.1882L292.631 2.16444H301.245Z" fill="#372D86"/>
<path d="M326.439 8.4899C321.949 8.4899 318.297 10.164 315.482 13.514C312.667 16.8641 311.261 21.2739 311.261 26.7442C311.261 32.1911 312.628 36.5774 315.363 39.9049C318.097 43.2324 321.676 44.8952 326.097 44.8952C330.791 44.8952 334.494 43.3122 337.207 40.1444C339.918 36.9766 341.274 32.5434 341.274 26.8466C341.274 20.9901 339.959 16.4667 337.326 13.2754C334.694 10.0841 331.064 8.4899 326.439 8.4899ZM326.062 52.0059C318.998 52.0059 313.341 49.7155 309.09 45.1348C304.839 40.5541 302.715 34.5952 302.715 27.2562C302.715 19.3715 304.879 13.0819 309.209 8.38655C313.539 3.69215 319.419 1.34449 326.849 1.34449C333.732 1.34449 339.274 3.62358 343.479 8.18176C347.684 12.7399 349.787 18.6988 349.787 26.0603C349.787 34.0597 347.632 40.3831 343.326 45.0324C339.019 49.6817 333.264 52.0059 326.062 52.0059Z" fill="#372D86"/>
<path d="M400.346 51.1855H391.458L368.041 15.1551C367.448 14.2438 366.959 13.2978 366.571 12.318H366.366C366.548 13.3664 366.64 15.6116 366.64 19.0519V51.1855H358.777V2.16444H368.246L390.876 37.341C391.834 38.7999 392.45 39.8014 392.723 40.3491H392.858C392.631 39.0498 392.517 36.8506 392.517 33.7513V2.16444H400.346V51.1855Z" fill="#372D86"/>
<path d="M440 51.1855H412.48V2.16444H438.905V9.07029H420.617V22.9487H437.47V29.8198H420.617V44.3145H440V51.1855Z" fill="#372D86"/>
<path d="M123.983 68.1739H118V85.3027H113.262V68.1739H107.309V64.3278H123.983V68.1739Z" fill="#F89F0E"/>
<path d="M149.54 85.3027H136.961V64.3278H149.057V68.1739H141.685V72.8401H148.545V76.6721H141.685V81.4698H149.54V85.3027Z" fill="#F89F0E"/>
<path d="M178.095 84.5566C176.564 85.2969 174.565 85.668 172.098 85.668C168.88 85.668 166.349 84.722 164.506 82.8299C162.663 80.9379 161.742 78.4183 161.742 75.2683C161.742 71.9136 162.777 69.1929 164.85 67.1064C166.922 65.0199 169.611 63.9762 172.917 63.9762C174.965 63.9762 176.691 64.2346 178.095 64.7512V69.3C176.691 68.4611 175.091 68.0421 173.297 68.0421C171.327 68.0421 169.738 68.6622 168.529 69.9003C167.32 71.1385 166.715 72.8154 166.715 74.932C166.715 76.9593 167.285 78.5761 168.426 79.7805C169.567 80.9848 171.103 81.587 173.033 81.587C174.877 81.587 176.564 81.1389 178.095 80.2408V84.5566Z" fill="#F89F0E"/>
<path d="M210.059 85.3027H205.32V76.7604H196.631V85.3027H191.906V64.3278H196.631V72.6935H205.32V64.3278H210.059V85.3027Z" fill="#F89F0E"/>
<path d="M243.88 85.3027H239.112L230.468 72.1233C229.961 71.353 229.609 70.7724 229.415 70.3825H229.357C229.434 71.1237 229.473 72.2548 229.473 73.7767V85.3027H225.012V64.3278H230.102L238.425 77.0967C238.806 77.6726 239.156 78.2428 239.478 78.8084H239.536C239.458 78.3199 239.42 77.3598 239.42 75.9262V64.3278H243.88V85.3027Z" fill="#F89F0E"/>
<path d="M267.906 68.0421C266.247 68.0421 264.932 68.664 263.956 69.9069C262.981 71.1507 262.493 72.7957 262.493 74.8437C262.493 76.9208 262.981 78.5639 263.956 79.773C264.932 80.982 266.209 81.587 267.789 81.587C269.417 81.587 270.709 80.9989 271.666 79.8237C272.619 78.6494 273.097 77.0185 273.097 74.932C273.097 72.7572 272.635 71.0653 271.709 69.8562C270.783 68.6471 269.513 68.0421 267.906 68.0421ZM267.699 85.668C264.698 85.668 262.249 84.69 260.357 82.735C258.466 80.78 257.52 78.2323 257.52 75.0926C257.52 71.7773 258.48 69.0952 260.402 67.0482C262.322 65.0002 264.869 63.9762 268.038 63.9762C271.03 63.9762 273.452 64.956 275.299 66.9157C277.147 68.8763 278.071 71.4598 278.071 74.668C278.071 77.9645 277.112 80.6213 275.196 82.6401C273.281 84.659 270.783 85.668 267.699 85.668Z" fill="#F89F0E"/>
<path d="M304.199 85.3027H291.707V64.3278H296.431V81.4698H304.199V85.3027Z" fill="#F89F0E"/>
<path d="M325.498 68.0421C323.841 68.0421 322.525 68.664 321.549 69.9069C320.573 71.1507 320.087 72.7957 320.087 74.8437C320.087 76.9208 320.573 78.5639 321.549 79.773C322.525 80.982 323.801 81.587 325.381 81.587C327.009 81.587 328.301 80.9989 329.258 79.8237C330.213 78.6494 330.69 77.0185 330.69 74.932C330.69 72.7572 330.227 71.0653 329.301 69.8562C328.375 68.6471 327.107 68.0421 325.498 68.0421ZM325.293 85.668C322.291 85.668 319.842 84.69 317.95 82.735C316.059 80.78 315.113 78.2323 315.113 75.0926C315.113 71.7773 316.073 69.0952 317.994 67.0482C319.916 65.0002 322.461 63.9762 325.63 63.9762C328.623 63.9762 331.043 64.956 332.892 66.9157C334.74 68.8763 335.664 71.4598 335.664 74.668C335.664 77.9645 334.705 80.6213 332.79 82.6401C330.873 84.659 328.375 85.668 325.293 85.668Z" fill="#F89F0E"/>
<path d="M366.517 83.898C364.47 85.078 361.923 85.668 358.881 85.668C355.507 85.668 352.848 84.7342 350.902 82.8665C348.958 80.9989 347.984 78.4277 347.984 75.1509C347.984 71.8553 349.048 69.1685 351.173 67.0914C353.298 65.0143 356.127 63.9762 359.657 63.9762C361.88 63.9762 363.839 64.2834 365.537 64.8978V69.3292C363.917 68.3935 361.938 67.9256 359.598 67.9256C357.638 67.9256 356.042 68.5616 354.808 69.8346C353.574 71.1066 352.958 72.806 352.958 74.932C352.958 77.0871 353.51 78.7546 354.617 79.9336C355.723 81.1135 357.218 81.7035 359.101 81.7035C360.231 81.7035 361.129 81.5429 361.792 81.2216V77.1256H357.593V73.3519H366.517V83.898Z" fill="#F89F0E"/>
<path d="M385.474 85.3027H380.75V64.3278H385.474V85.3027Z" fill="#F89F0E"/>
<path d="M412.978 85.3027H400.398V64.3278H412.495V68.1739H405.122V72.8401H411.983V76.6721H405.122V81.4698H412.978V85.3027Z" fill="#F89F0E"/>
<path d="M425.53 84.4974V79.8171C426.378 80.5283 427.299 81.0628 428.294 81.4189C429.287 81.7749 430.293 81.9525 431.307 81.9525C431.902 81.9525 432.421 81.8989 432.865 81.7918C433.308 81.6838 433.678 81.5363 433.976 81.3456C434.274 81.1558 434.495 80.9313 434.642 80.672C434.788 80.4146 434.861 80.1337 434.861 79.8312C434.861 79.4225 434.745 79.0562 434.51 78.7349C434.276 78.4126 433.957 78.1148 433.553 77.8424C433.148 77.57 432.668 77.306 432.111 77.0523C431.555 76.7987 430.957 76.5403 430.313 76.2773C428.675 75.5953 427.453 74.761 426.649 73.7765C425.843 72.791 425.441 71.6017 425.441 70.2075C425.441 69.115 425.66 68.1765 426.101 67.3911C426.538 66.6067 427.136 65.9603 427.891 65.453C428.647 64.9467 429.521 64.5737 430.516 64.3351C431.511 64.0955 432.564 63.9762 433.676 63.9762C434.768 63.9762 435.737 64.042 436.579 64.1735C437.423 64.306 438.201 64.5079 438.914 64.7804V69.1544C438.563 68.9102 438.179 68.695 437.765 68.51C437.351 68.3249 436.924 68.1718 436.485 68.0496C436.047 67.9275 435.609 67.8373 435.176 67.7791C434.742 67.7208 434.329 67.6917 433.941 67.6917C433.404 67.6917 432.916 67.7424 432.478 67.8448C432.037 67.9472 431.667 68.091 431.366 68.276C431.063 68.4611 430.829 68.6838 430.664 68.9412C430.497 69.2005 430.415 69.4907 430.415 69.812C430.415 70.1634 430.508 70.4781 430.692 70.7552C430.878 71.0343 431.141 71.2973 431.483 71.5453C431.824 71.7943 432.238 72.0385 432.726 72.2762C433.212 72.5158 433.765 72.7619 434.378 73.0155C435.217 73.3669 435.971 73.7389 436.638 74.1344C437.306 74.529 437.88 74.9752 438.357 75.4731C438.835 75.9701 439.201 76.5384 439.454 77.1773C439.707 77.8161 439.835 78.5592 439.835 79.4075C439.835 80.5781 439.613 81.5598 439.169 82.3555C438.725 83.1493 438.122 83.7928 437.362 84.2861C436.601 84.7783 435.717 85.1316 434.707 85.3457C433.699 85.5599 432.633 85.668 431.511 85.668C430.361 85.668 429.266 85.5703 428.229 85.3749C427.189 85.1804 426.29 84.8873 425.53 84.4974Z" fill="#F89F0E"/>
<path d="M8.50395 71.7457C8.52199 65.4759 13.6195 60.4076 19.8893 60.4254C26.1589 60.4442 31.2267 65.5416 31.2088 71.8115C31.1908 78.0804 26.0933 83.1487 19.8235 83.1308C13.5538 83.112 8.48601 78.0146 8.50395 71.7457Z" fill="#F89F0E"/>
<path d="M18.3125 11.3199C18.331 5.05005 23.4282 -0.0173092 29.6979 0.00053978C35.9675 0.0183887 41.0357 5.11583 41.0174 11.3857C40.9994 17.6555 35.9022 22.7238 29.6322 22.705C23.3624 22.6872 18.2946 17.5897 18.3125 11.3199Z" fill="#372D86"/>
<path d="M65.7501 48.8941C65.768 42.6243 70.8656 37.556 77.1354 37.5738C83.4052 37.5926 88.4726 42.6901 88.4547 48.9599C88.4369 55.2297 83.3394 60.2971 77.0696 60.2792C70.7999 60.2605 65.7316 55.164 65.7501 48.8941Z" fill="#42B83B"/>
<path d="M71.5233 70.4165C72.9511 71.6124 72.9827 73.7891 71.5996 75.0358C66.1681 79.934 51.8552 89.9598 28.7383 86.1776C29.2704 82.9261 32.1735 80.5869 35.4619 80.7899C52.785 81.859 63.4396 74.1856 67.5079 70.4983C68.6408 69.4724 70.3516 69.4357 71.5233 70.4165Z" fill="#F89F0E"/>
<path d="M70.2506 61.5756C69.8604 62.1318 60.9181 74.5437 41.4166 75.4052C39.6486 75.4831 38.1788 74.0458 38.2196 72.2759C38.2566 70.6647 39.5418 69.3655 41.1524 69.295C51.0991 68.8638 57.7296 64.9811 61.477 61.8941C63.9933 59.8217 67.5845 59.6986 70.2506 61.5756Z" fill="#42B83B"/>
<path d="M19.686 26.0534C20.9862 26.959 21.3591 28.6961 20.5935 30.0836C16.3928 37.6978 16.6112 46.0222 17.4094 51.3244C17.9018 54.5937 15.9965 57.7465 12.8773 58.8438C12.6196 58.1147 7.03031 41.8154 15.282 27.0379C16.1569 25.471 18.2137 25.0285 19.686 26.0534Z" fill="#F89F0E"/>
<path d="M13.6416 9.45704C16.0489 11.7258 16.3447 15.43 14.3712 18.0849C3.42739 32.8041 5.95139 47.4744 7.60161 53.2389C8.02399 54.7138 7.26473 56.2695 5.8534 56.8698C4.15583 57.5922 2.21748 56.6575 1.71403 54.882C-0.448195 47.2593 -3.56301 27.7142 13.6416 9.45704Z" fill="#372D86"/>
<path d="M84.4366 34.539C81.2443 35.4051 77.9318 33.7207 76.7012 30.6496C69.8831 13.6448 56.081 8.11897 50.2928 6.50501C48.8069 6.09071 47.8649 4.63741 48.0924 3.11175C48.3647 1.28641 50.1746 0.123379 51.9511 0.622223C59.58 2.76416 77.8689 10.3286 84.4366 34.539Z" fill="#42B83B"/>
<path d="M50.6232 11.8375C61.1324 16.1947 67.237 24.2946 70.0017 28.8744C70.6818 30.0008 70.6422 31.7829 69.8161 32.8238C69.2781 33.5011 68.401 33.9023 67.5405 33.9004C66.1665 33.8985 65.2219 32.8022 64.5516 31.7303C64.1288 31.0539 63.6836 30.3906 63.2194 29.7415C62.0319 28.0815 60.717 26.5126 59.2851 25.0584C57.5464 23.2913 55.6319 21.6951 53.563 20.3292C51.1975 18.7678 48.6316 17.5137 45.9377 16.6296C45.6915 16.5489 42.9964 15.7635 42.9844 15.818C43.745 12.4116 47.3986 10.5007 50.6232 11.8375Z" fill="#372D86"/>
</svg>
